<?xml version="1.0" standalone="no"?>
<!DOCTYPE svg PUBLIC "-//W3C//DTD SVG 20010904//EN"
 "http://www.w3.org/TR/2001/REC-SVG-20010904/DTD/svg10.dtd">
<svg version="1.0" xmlns="http://www.w3.org/2000/svg"
 width="300.000000pt" height="300.000000pt" viewBox="0 0 300.000000 300.000000"
 preserveAspectRatio="xMidYMid meet">
<metadata>
Created by potrace 1.10, written by Peter Selinger 2001-2011
</metadata>
<g transform="translate(0.000000,300.000000) scale(0.100000,-0.100000)"
fill="#000000" stroke="none">
<path d="M1434 2480 c-263 -35 -473 -278 -474 -547 0 -245 167 -465 409 -537
30 -9 67 -16 83 -16 l28 0 0 -186 c0 -165 2 -185 15 -174 11 9 18 10 29 1 22
-19 26 8 26 190 l0 169 28 0 c95 0 249 78 336 170 209 222 205 559 -9 774
-123 123 -293 179 -471 156z m-31 -56 c-20 -16 -30 -30 -26 -40 4 -12 0 -14
-19 -9 -78 20 -102 10 -192 -79 -101 -99 -156 -216 -118 -254 18 -18 18 -20
-11 -52 -29 -33 -30 -35 -24 -117 2 -46 10 -90 16 -97 16 -19 32 -76 22 -76
-11 0 -37 72 -50 138 -21 100 -12 199 25 279 8 17 14 35 14 40 0 14 79 125
104 146 12 9 30 25 41 35 47 42 180 106 227 109 20 2 19 -1 -9 -23z m270 -33
c112 -40 117 -45 117 -131 0 -43 -25 -218 -32 -226 -2 -2 -31 38 -63 88 -71
107 -159 192 -252 241 -60 32 -65 36 -43 41 85 19 196 13 273 -13z m172 -51
c31 -32 31 -34 -2 -44 -24 -8 -28 -4 -38 42 -8 40 3 41 40 2z m-456 -15 c36
-19 93 -60 126 -90 l60 -54 -65 -1 c-133 -2 -333 -56 -422 -115 -25 -17 -38
-21 -38 -12 0 26 69 153 106 196 46 53 122 110 148 111 10 0 48 -16 85 -35z
m511 -92 c57 -77 88 -149 102 -238 14 -89 12 -93 -84 -141 -65 -33 -198 -86
-198 -80 0 2 18 41 40 88 52 112 80 230 80 341 0 48 4 87 8 87 5 0 28 -26 52
-57z m-260 -79 c38 -54 38 -58 -2 -34 -18 11 -45 20 -60 20 -31 0 -36 11 -13
30 8 7 15 19 15 26 0 24 29 3 60 -42z m-256 -58 c-44 -50 -54 -55 -54 -27 0
11 -4 23 -10 26 -29 18 10 43 69 44 l34 1 -39 -44z m290 -76 l47 -89 -22 -43
c-12 -24 -36 -64 -53 -90 l-31 -48 -93 0 c-110 0 -120 6 -175 117 l-35 69 20
35 c12 19 36 58 55 87 l33 52 104 0 104 0 46 -90z m-388 8 c-65 -119 -88 -201
-94 -331 -5 -135 -7 -136 -74 -32 -53 81 -101 258 -80 291 19 29 224 130 270
133 8 1 0 -22 -22 -61z m486 1 c19 12 19 10 13 -21 -11 -48 -37 -97 -43 -78
-2 8 -12 39 -23 68 l-19 52 26 -17 c21 -14 29 -14 46 -4z m-463 -145 c13 -30
21 -58 17 -61 -3 -4 -6 -2 -6 4 0 17 -44 32 -63 21 -11 -6 -17 -5 -17 1 0 18
32 91 39 91 4 0 18 -25 30 -56z m728 -20 c-8 -47 -13 -51 -37 -29 -19 18 -19
18 3 41 31 33 41 30 34 -12z m-726 -72 c67 -121 182 -237 300 -302 l53 -28
-40 -8 c-110 -23 -282 7 -349 61 -29 22 -30 24 -29 116 1 93 19 209 32 209 4
0 19 -22 33 -48z m684 16 c-31 -104 -115 -220 -202 -279 -35 -25 -51 -30 -77
-25 -38 7 -121 60 -198 128 -45 38 -58 45 -58 31 -1 -13 -11 -7 -40 26 -43 46
-52 68 -22 52 9 -5 39 -12 66 -16 37 -6 45 -10 32 -17 -64 -36 77 -34 220 3
43 11 122 42 174 68 114 57 113 57 105 29z m-291 -19 c-2 -4 3 -12 11 -19 29
-24 19 -32 -60 -46 l-40 -7 26 29 c15 16 32 40 39 53 9 18 14 21 20 10 5 -7 7
-16 4 -20z m-612 -144 c34 -57 73 -83 99 -67 21 13 24 10 33 -35 4 -17 14 -37
22 -44 33 -27 10 -27 -30 0 -48 34 -129 120 -152 164 -24 44 -1 30 28 -18z
m626 -170 c12 -3 22 -10 22 -14 0 -9 -39 -26 -85 -36 l-30 -7 21 24 c12 13 19
29 17 37 -4 9 0 11 13 8 11 -3 29 -8 42 -12z m-158 -64 c0 -14 -29 -41 -43
-41 -15 0 -28 10 -46 33 -12 16 -10 17 38 17 28 0 51 -4 51 -9z"/>
<path d="M1200 1116 c-69 -18 -137 -56 -188 -103 -43 -40 -44 -43 -30 -65 10
-15 27 -24 49 -26 137 -10 246 -46 371 -121 l77 -46 1 -120 0 -121 35 4 35 4
0 117 0 116 88 52 c105 62 213 100 313 109 41 4 80 11 87 17 41 33 -19 101
-141 158 -51 23 -86 32 -146 36 -43 3 -90 3 -104 -1 -28 -7 -59 -45 -82 -100
-13 -31 -13 -35 0 -30 19 8 19 7 -2 -66 -16 -60 -16 -60 6 -84 l23 -24 -38
-35 -38 -35 -42 36 -42 35 25 21 25 22 -19 71 c-15 54 -17 70 -6 66 7 -3 13 1
13 8 0 21 -49 98 -70 109 -25 14 -144 12 -200 -4z m190 -92 c23 -37 72 -166
65 -172 -2 -2 -16 5 -32 16 -70 49 -170 88 -278 106 l-70 13 44 23 c76 38 113
49 183 49 66 1 67 1 88 -35z m496 -4 l69 -33 -50 -7 c-101 -15 -227 -62 -296
-111 -16 -11 -32 -19 -35 -17 -5 6 28 104 51 149 31 61 33 62 115 57 60 -4 91
-12 146 -38z m-812 -14 c-3 -8 -1 -24 6 -35 10 -19 8 -21 -19 -21 -40 0 -46
13 -19 44 25 28 40 34 32 12z m932 -27 c8 -14 -14 -29 -44 -29 -15 0 -22 4
-18 13 3 6 9 20 12 29 5 14 10 15 25 8 10 -6 21 -15 25 -21z"/>
</g>
</svg>
